<svg width="70" height="79" viewBox="0 0 70 79" fill="none" xmlns="http://www.w3.org/2000/svg">
<g clip-path="url(#clip0_765_1811)">
<path d="M9.57435 52.5708C8.77091 52.5708 8.07906 52.3029 7.49879 51.7673C6.96317 51.2317 6.69535 50.5398 6.69535 49.6918V3.15906C6.69535 2.35562 6.96317 1.68609 7.49879 1.15046C8.07906 0.570195 8.77091 0.280063 9.57435 0.280063C10.3778 0.280063 11.0473 0.570195 11.583 1.15046C12.1632 1.68609 12.4534 2.35562 12.4534 3.15906V47.0136H38.0296C38.833 47.0136 39.5026 47.2814 40.0382 47.8171C40.6185 48.3527 40.9086 48.9999 40.9086 49.7587C40.9086 50.5622 40.6185 51.2317 40.0382 51.7673C39.5026 52.3029 38.833 52.5708 38.0296 52.5708H9.57435Z" fill="black"/>
<path d="M32.2111 77.8462C31.363 77.8462 30.6266 77.5783 30.0017 77.0427C29.4214 76.5071 29.1313 75.8152 29.1313 74.9672V28.4345C29.1313 27.5864 29.3991 26.8945 29.9347 26.3589C30.4703 25.8233 31.1622 25.5555 32.0103 25.5555H48.213C50.9804 25.5555 53.4577 26.1357 55.6449 27.2962C57.8766 28.4568 59.6398 30.0413 60.9342 32.0499C62.2286 34.0139 62.8758 36.3127 62.8758 38.9462C62.8758 41.3119 62.2286 43.4097 60.9342 45.2398C59.6844 47.0699 58.0329 48.4982 55.9796 49.5248C58.9256 50.2836 61.3136 51.7566 63.1437 53.9437C64.9737 56.0863 65.8887 58.8537 65.8887 62.246C65.8887 65.3258 65.1746 68.0263 63.7462 70.3474C62.3625 72.6684 60.4209 74.4985 57.9213 75.8375C55.4663 77.1766 52.6319 77.8462 49.4182 77.8462H32.2111ZM34.8893 72.4229H49.4182C51.5161 72.4229 53.3684 72.0212 54.9753 71.2178C56.6268 70.3697 57.9213 69.2091 58.8586 67.7362C59.796 66.2186 60.2646 64.3885 60.2646 62.246C60.2646 60.282 59.796 58.5859 58.8586 57.1575C57.9213 55.7292 56.6268 54.6356 54.9753 53.8768C53.3684 53.118 51.5161 52.7386 49.4182 52.7386H34.8893V72.4229ZM34.8893 47.2484H48.213C50.8465 47.2484 53.0114 46.5342 54.7075 45.1059C56.4037 43.6775 57.2517 41.6243 57.2517 38.9462C57.2517 36.3127 56.4037 34.3264 54.7075 32.9873C53.0114 31.6482 50.8465 30.9787 48.213 30.9787H34.8893V47.2484Z" fill="black"/>
</g>
<defs>
<clipPath id="clip0_765_1811">
<rect width="70" height="78.9744" fill="white"/>
</clipPath>
</defs>
</svg>
